<svg xmlns="http://www.w3.org/2000/svg" viewBox="0 0 100 100">
  <defs>
    <linearGradient id="bgGrad" x1="0%" y1="0%" x2="100%" y2="100%">
      <stop offset="0%" style="stop-color:#3DDC84;stop-opacity:1" />
      <stop offset="100%" style="stop-color:#2196F3;stop-opacity:1" />
    </linearGradient>
  </defs>
  
  <!-- Background -->
  <rect x="5" y="5" width="90" height="90" rx="15" fill="url(#bgGrad)"/>
  
  <!-- Terminal window -->
  <rect x="15" y="20" width="70" height="60" rx="5" fill="#1e1e1e"/>
  
  <!-- Terminal header dots -->
  <circle cx="23" cy="27" r="3" fill="#F44336"/>
  <circle cx="33" cy="27" r="3" fill="#FFC107"/>
  <circle cx="43" cy="27" r="3" fill="#4CAF50"/>
  
  <!-- Log lines -->
  <rect x="20" y="38" width="8" height="3" rx="1" fill="#2196F3"/>
  <rect x="32" y="38" width="45" height="3" rx="1" fill="#9E9E9E"/>
  
  <rect x="20" y="46" width="8" height="3" rx="1" fill="#4CAF50"/>
  <rect x="32" y="46" width="35" height="3" rx="1" fill="#9E9E9E"/>
  
  <rect x="20" y="54" width="8" height="3" rx="1" fill="#FFC107"/>
  <rect x="32" y="54" width="50" height="3" rx="1" fill="#9E9E9E"/>
  
  <rect x="20" y="62" width="8" height="3" rx="1" fill="#F44336"/>
  <rect x="32" y="62" width="28" height="3" rx="1" fill="#9E9E9E"/>
  
  <rect x="20" y="70" width="8" height="3" rx="1" fill="#9C27B0"/>
  <rect x="32" y="70" width="40" height="3" rx="1" fill="#9E9E9E"/>
</svg>

